<svg width="20" height="20" viewBox="0 0 20 20" fill="none" xmlns="http://www.w3.org/2000/svg">
<path d="M15.4358 3.52171C11.8231 3.11776 8.17674 3.11776 4.56411 3.52171C4.35999 3.54441 4.16575 3.62163 4.00176 3.74526C3.83777 3.8689 3.71009 4.03439 3.6321 4.22438C3.55411 4.41437 3.52869 4.62184 3.55852 4.82504C3.58834 5.02823 3.67231 5.21965 3.80161 5.37922L6.94244 9.26172C7.84216 10.3739 8.3331 11.7611 8.33327 13.1917V15.81C8.3332 15.9082 8.35625 16.005 8.40055 16.0926C8.44486 16.1802 8.50917 16.2561 8.58827 16.3142L10.8974 18.0075C10.9695 18.0604 11.0548 18.0922 11.1438 18.0995C11.2328 18.1068 11.3222 18.0893 11.4019 18.0489C11.4815 18.0085 11.5485 17.9468 11.5952 17.8706C11.6419 17.7945 11.6667 17.7069 11.6666 17.6175V13.1917C11.6668 11.7608 12.1581 10.3732 13.0583 9.26088L16.1983 5.37755C16.3273 5.21798 16.4111 5.02663 16.4408 4.82356C16.4705 4.62048 16.4451 4.41316 16.3671 4.22331C16.2891 4.03346 16.1615 3.86808 15.9977 3.74449C15.8338 3.62091 15.6397 3.54451 15.4358 3.52171Z" fill="white"/>
</svg>
