<svg width="22" height="22" viewBox="0 0 22 22" fill="none" xmlns="http://www.w3.org/2000/svg">
<path d="M2.55474 2.09064C2.64142 2.06505 2.73228 2.0568 2.82215 2.06636C2.91201 2.07592 2.99911 2.1031 3.07846 2.14635C3.1578 2.1896 3.22785 2.24807 3.28458 2.31841C3.34131 2.38876 3.38362 2.4696 3.40908 2.55631L3.91324 4.26314H17.347C19.0337 4.26314 20.3216 5.83706 19.8357 7.48064L18.3187 12.614C17.996 13.7085 16.9702 14.4381 15.8299 14.4381H7.43691C6.29658 14.4381 5.27174 13.7085 4.94816 12.614L2.09091 2.94589C2.03916 2.77109 2.05895 2.58289 2.14593 2.42268C2.23291 2.26247 2.37996 2.14245 2.55474 2.09064ZM5.72916 17.8756C5.72916 17.3286 5.94646 16.804 6.33325 16.4172C6.72005 16.0304 7.24465 15.8131 7.79166 15.8131C8.33867 15.8131 8.86328 16.0304 9.25007 16.4172C9.63686 16.804 9.85416 17.3286 9.85416 17.8756C9.85416 18.4226 9.63686 18.9473 9.25007 19.334C8.86328 19.7208 8.33867 19.9381 7.79166 19.9381C7.24465 19.9381 6.72005 19.7208 6.33325 19.334C5.94646 18.9473 5.72916 18.4226 5.72916 17.8756ZM13.0625 17.8756C13.0625 17.6048 13.1158 17.3366 13.2195 17.0864C13.3231 16.8361 13.4751 16.6088 13.6666 16.4172C13.8581 16.2257 14.0855 16.0738 14.3357 15.9701C14.5859 15.8665 14.8541 15.8131 15.125 15.8131C15.3958 15.8131 15.664 15.8665 15.9143 15.9701C16.1645 16.0738 16.3919 16.2257 16.5834 16.4172C16.7749 16.6088 16.9268 16.8361 17.0305 17.0864C17.1341 17.3366 17.1875 17.6048 17.1875 17.8756C17.1875 18.4226 16.9702 18.9473 16.5834 19.334C16.1966 19.7208 15.672 19.9381 15.125 19.9381C14.578 19.9381 14.0534 19.7208 13.6666 19.334C13.2798 18.9473 13.0625 18.4226 13.0625 17.8756Z" fill="#1A1A1A"/>
</svg>
