<svg width="22" height="22" viewBox="0 0 22 22" fill="none" xmlns="http://www.w3.org/2000/svg">
<path opacity="0.987" fill-rule="evenodd" clip-rule="evenodd" d="M9.91234 1.45853C10.9092 1.34716 11.4991 1.34716 12.5702 1.45853C14.4662 1.73916 16.2239 2.61557 17.589 3.96103C16.6665 4.83297 15.7562 5.71764 14.8582 6.61478C13.1385 5.15728 11.219 4.82086 9.09972 5.60553C7.54505 6.32053 6.46247 7.4792 5.85197 9.08153C4.85432 8.3388 3.86967 7.57877 2.89847 6.80178C2.83097 6.76625 2.75388 6.75325 2.67847 6.76466C4.22122 3.79007 6.63205 2.02091 9.91097 1.45716" fill="#F44336"/>
<path opacity="0.997" fill-rule="evenodd" clip-rule="evenodd" d="M2.67573 6.7622C2.75365 6.75028 2.82744 6.76266 2.89711 6.79932C3.86831 7.57631 4.85296 8.33634 5.85061 9.07907C5.69362 9.7034 5.59465 10.3409 5.55498 10.9834C5.5889 11.6049 5.68744 12.215 5.85061 12.8136L2.74998 15.2817C1.39973 12.4602 1.37498 9.62036 2.67573 6.7622Z" fill="#FFC107"/>
<path opacity="0.999" fill-rule="evenodd" clip-rule="evenodd" d="M17.4419 18.2713C16.4764 17.4199 15.4657 16.6212 14.4141 15.8788C15.4683 15.1345 16.1081 14.1133 16.3336 12.8153H11.1677V9.22795C14.1469 9.2032 17.1247 9.2284 20.1011 9.30357C20.6658 12.3698 20.0136 15.1345 18.1445 17.5976C17.9222 17.8338 17.6868 18.0587 17.4419 18.2713Z" fill="#448AFF"/>
<path opacity="0.993" fill-rule="evenodd" clip-rule="evenodd" d="M5.85063 12.8203C6.97813 15.6226 9.04521 16.9306 12.0519 16.7446C12.8959 16.6469 13.7051 16.352 14.4141 15.8838C15.4665 16.6281 16.4757 17.4256 17.4419 18.2763C15.911 19.6519 13.9592 20.4682 11.9047 20.5918C11.438 20.6291 10.969 20.6291 10.5023 20.5918C7.00242 20.1793 4.41833 18.4111 2.75 15.2871L5.85063 12.8203Z" fill="#43A047"/>
</svg>
