<svg width="21" height="21" viewBox="0 0 21 21" fill="none" xmlns="http://www.w3.org/2000/svg">
<path d="M3.49998 15.7516V6.21406L2.14373 3.28281C2.04165 3.06406 2.03436 2.84152 2.12186 2.61519C2.20936 2.38885 2.36248 2.22494 2.58123 2.12344C2.79998 2.02194 3.02252 2.01115 3.24886 2.09106C3.47519 2.17098 3.63911 2.32031 3.74061 2.53906L5.42498 6.17031H15.575L17.2594 2.53906C17.3614 2.32031 17.5256 2.16719 17.752 2.07969C17.9783 1.99219 18.2006 2.00677 18.4187 2.12344C18.6375 2.22552 18.7906 2.38973 18.8781 2.61606C18.9656 2.8424 18.9583 3.06465 18.8562 3.28281L17.5 6.21406V15.7516C17.5 16.2328 17.3288 16.6449 16.9864 16.9879C16.6439 17.3309 16.2318 17.5021 15.75 17.5016H5.24998C4.76873 17.5016 4.3569 17.3304 4.01448 16.9879C3.67206 16.6455 3.50056 16.2334 3.49998 15.7516ZM8.74998 11.3766H12.25C12.4979 11.3766 12.7059 11.2926 12.8739 11.1246C13.0419 10.9566 13.1256 10.7489 13.125 10.5016C13.1244 10.2542 13.0404 10.0466 12.873 9.87856C12.7056 9.71056 12.4979 9.62656 12.25 9.62656H8.74998C8.50206 9.62656 8.2944 9.71056 8.12698 9.87856C7.95956 10.0466 7.87556 10.2542 7.87498 10.5016C7.8744 10.7489 7.9584 10.9569 8.12698 11.1254C8.29556 11.294 8.50323 11.3777 8.74998 11.3766Z" fill="#1A1A1A"/>
</svg>
