<svg width="22" height="22" viewBox="0 0 22 22" fill="none" xmlns="http://www.w3.org/2000/svg">
<path d="M8.24996 2.75H7.33329C6.48079 2.75 6.05454 2.75 5.70529 2.8435C5.23883 2.9684 4.81347 3.21392 4.47201 3.55538C4.13055 3.89684 3.88502 4.3222 3.76013 4.78867C3.66663 5.13792 3.66663 5.56417 3.66663 6.41667M13.75 2.75H14.6666C15.5191 2.75 15.9454 2.75 16.2946 2.8435C16.7611 2.9684 17.1864 3.21392 17.5279 3.55538C17.8694 3.89684 18.1149 4.3222 18.2398 4.78867C18.3333 5.13792 18.3333 5.56417 18.3333 6.41667M18.3333 13.75V14.6667C18.3333 16.3808 18.3333 17.237 17.9648 17.875C17.7234 18.293 17.3763 18.6401 16.9583 18.8815C16.3203 19.25 15.4641 19.25 13.75 19.25M3.66663 13.75V14.6667C3.66663 16.3808 3.66663 17.237 4.03513 17.875C4.27648 18.293 4.62361 18.6401 5.04163 18.8815C5.67963 19.25 6.53579 19.25 8.24996 19.25" stroke="#8D8D8D" stroke-width="2.16667" stroke-linejoin="round"/>
<path d="M2.75 13.75H19.25M6.41667 10.0833V13.75H15.5833V10.0833C15.5833 9.21892 15.5833 8.78717 15.3148 8.51858C15.0462 8.25 14.6144 8.25 13.75 8.25H8.25C7.38558 8.25 6.95383 8.25 6.68525 8.51858C6.41667 8.78717 6.41667 9.21892 6.41667 10.0833Z" stroke="#8D8D8D" stroke-width="2.16667" stroke-linecap="round" stroke-linejoin="round"/>
</svg>
