<svg width="17" height="17" viewBox="0 0 17 17" fill="none" xmlns="http://www.w3.org/2000/svg">
<path d="M2.67606 2.58635C2.54785 2.84135 2.48481 3.15727 2.35873 3.78769L1.93514 5.9056C1.87511 6.19437 1.87465 6.49236 1.93378 6.78131C1.99291 7.07027 2.11039 7.34412 2.27903 7.58609C2.44767 7.82807 2.66392 8.03308 2.91455 8.18857C3.16517 8.34407 3.44489 8.44678 3.73659 8.49042C4.02829 8.53405 4.32583 8.5177 4.61098 8.44235C4.89614 8.36701 5.16292 8.23425 5.39499 8.05222C5.62706 7.87019 5.81954 7.64271 5.96064 7.38371C6.10174 7.12471 6.1885 6.83963 6.2156 6.54594L6.26518 6.05719C6.23834 6.36803 6.27663 6.68106 6.37761 6.97626C6.4786 7.27147 6.64005 7.54237 6.85166 7.77164C7.06326 8.00092 7.32037 8.18353 7.60654 8.30782C7.89272 8.43211 8.20168 8.49533 8.51367 8.49345C8.82567 8.49157 9.13384 8.42463 9.4185 8.2969C9.70316 8.16918 9.95805 7.98348 10.1669 7.75167C10.3757 7.51986 10.5339 7.24704 10.6313 6.95064C10.7287 6.65423 10.7632 6.34077 10.7326 6.03027L10.7844 6.54594C10.8115 6.83963 10.8982 7.12471 11.0393 7.38371C11.1804 7.64271 11.3729 7.87019 11.605 8.05222C11.837 8.23425 12.1038 8.36701 12.389 8.44235C12.6741 8.5177 12.9717 8.53405 13.2634 8.49042C13.5551 8.44678 13.8348 8.34407 14.0854 8.18857C14.336 8.03308 14.5523 7.82807 14.7209 7.58609C14.8896 7.34412 15.007 7.07027 15.0662 6.78131C15.1253 6.49236 15.1248 6.19437 15.0648 5.9056L14.6412 3.78769C14.5151 3.15727 14.4521 2.84206 14.3239 2.58635C14.1903 2.32005 14.0022 2.08481 13.7718 1.89591C13.5414 1.707 13.2739 1.56866 12.9866 1.48985C12.7103 1.41406 12.3887 1.41406 11.7456 1.41406H5.25439C4.61123 1.41406 4.28964 1.41406 4.01339 1.48985C3.72607 1.56866 3.45853 1.707 3.22814 1.89591C2.99774 2.08481 2.80965 2.32005 2.67606 2.58635ZM12.9405 9.5599C13.494 9.56129 14.0384 9.41952 14.5208 9.14835V9.91406C14.5208 12.5852 14.5208 13.9211 13.6906 14.7506C13.0227 15.4192 12.0275 15.5489 10.2708 15.5744V13.1016C10.2708 12.4393 10.2708 12.1085 10.1284 11.862C10.0352 11.7005 9.90107 11.5664 9.73956 11.4731C9.49306 11.3307 9.16227 11.3307 8.49998 11.3307C7.83768 11.3307 7.50689 11.3307 7.26039 11.4731C7.09889 11.5664 6.96477 11.7005 6.87152 11.862C6.72914 12.1085 6.72914 12.4393 6.72914 13.1016V15.5744C4.97248 15.5489 3.97727 15.4185 3.30931 14.7506C2.47914 13.9211 2.47914 12.5852 2.47914 9.91406V9.14835C2.96181 9.41964 3.50646 9.56142 4.06014 9.5599C4.87872 9.56041 5.66682 9.24942 6.26448 8.69006C6.87344 9.25129 7.67183 9.56195 8.49998 9.5599C9.32812 9.56195 10.1265 9.25129 10.7355 8.69006C11.3331 9.24942 12.1219 9.56041 12.9405 9.5599Z" fill="white"/>
</svg>
